<svg width="33" height="32" viewBox="0 0 33 32" fill="none" xmlns="http://www.w3.org/2000/svg">
<path d="M16.2992 7.28387L16.8975 6.27097C17.2657 5.63871 18.0875 5.42581 18.7319 5.7871C19.3762 6.14839 19.5932 6.95484 19.225 7.5871L13.472 17.3613H17.6339C18.9817 17.3613 19.7378 18.9161 19.1527 19.9935H6.95624C6.21327 19.9935 5.61496 19.4065 5.61496 18.6774C5.61496 17.9484 6.21327 17.3613 6.95624 17.3613H10.3752L14.7541 9.91613L13.3865 7.5871C13.0183 6.95484 13.2353 6.15484 13.8796 5.7871C14.5239 5.42581 15.3392 5.63871 15.714 6.27097L16.2992 7.28387V7.28387ZM11.1247 21.3484L9.83604 23.5419C9.46785 24.1742 8.64598 24.3871 8.00164 24.0258C7.3573 23.6645 7.14033 22.8581 7.50853 22.2258L8.46846 20.6C9.54674 20.271 10.4278 20.5226 11.1247 21.3484V21.3484ZM22.2297 17.3677H25.721C26.4639 17.3677 27.0623 17.9548 27.0623 18.6839C27.0623 19.4129 26.4639 20 25.721 20H23.7814L25.0898 22.2258C25.458 22.8581 25.241 23.6581 24.5967 24.0258C23.9523 24.3871 23.137 24.1742 22.7623 23.5419C20.5597 19.7935 18.9028 16.9871 17.8048 15.1161C16.6805 13.2129 17.4826 11.3032 18.2782 10.6581C19.1592 12.1419 20.4742 14.3806 22.2297 17.3677V17.3677ZM16.3057 0C7.29813 0 0 7.16129 0 16C0 24.8387 7.29813 32 16.3057 32C25.3133 32 32.6115 24.8387 32.6115 16C32.6115 7.16129 25.3133 0 16.3057 0ZM30.5075 16C30.5075 23.6581 24.189 29.9355 16.3057 29.9355C8.50134 29.9355 2.10397 23.7355 2.10397 16C2.10397 8.34194 8.42244 2.06452 16.3057 2.06452C24.1101 2.06452 30.5075 8.26452 30.5075 16Z" fill="white"/>
</svg>
