<svg width="204" height="96" viewBox="0 0 204 96" fill="none" xmlns="http://www.w3.org/2000/svg">
<path d="M69.71 95.1701V89.2201H63.13V95.1701H60.76V81.3301H63.13V87.0801H69.71V81.3301H72.08V95.1701H69.71Z" fill="#002856"/>
<path d="M79.1801 83.3898V87.1498H85.7001V89.1098H79.1801V93.1199H86.6901V95.1798H76.8101V81.3398H86.5001V83.3998H79.1901L79.1801 83.3898Z" fill="#002856"/>
<path d="M101.01 95.1701L99.8401 92.2801H93.3201L92.1501 95.1701H89.6401L95.5101 81.3301H97.6401L103.53 95.1701H101H101.01ZM99.0501 90.3301L96.5801 84.2201L94.1101 90.3301H99.0501V90.3301Z" fill="#002856"/>
<path d="M116.28 93.1199V95.1798H106.79V81.3398H109.16V93.1199H116.28Z" fill="#002856"/>
<path d="M123.63 83.3901V95.1701H121.26V83.3901H116.91V81.3301H127.98V83.3901H123.63V83.3901Z" fill="#002856"/>
<path d="M140.37 95.1701V89.2201H133.79V95.1701H131.42V81.3301H133.79V87.0801H140.37V81.3301H142.74V95.1701H140.37Z" fill="#002856"/>
<path d="M101.75 20.6701C107.229 20.6701 111.67 16.2287 111.67 10.7501C111.67 5.27141 107.229 0.830078 101.75 0.830078C96.2712 0.830078 91.8298 5.27141 91.8298 10.7501C91.8298 16.2287 96.2712 20.6701 101.75 20.6701Z" fill="#0099D1"/>
<path d="M136.88 20.6701C142.359 20.6701 146.8 16.2287 146.8 10.7501C146.8 5.27141 142.359 0.830078 136.88 0.830078C131.401 0.830078 126.96 5.27141 126.96 10.7501C126.96 16.2287 131.401 20.6701 136.88 20.6701Z" fill="#2ED9C3"/>
<path d="M66.6199 20.6701C72.0986 20.6701 76.5399 16.2287 76.5399 10.7501C76.5399 5.27141 72.0986 0.830078 66.6199 0.830078C61.1413 0.830078 56.7 5.27141 56.7 10.7501C56.7 16.2287 61.1413 20.6701 66.6199 20.6701Z" fill="#FF5C35"/>
<path d="M37.39 30.5801H0V40.1801H37.39V30.5801Z" fill="#002856"/>
<path d="M116.68 40.1801H131.02V71.4201H142.74V40.1801H157.08V30.5801H116.68V40.1801Z" fill="#002856"/>
<path d="M107.65 30.5801H95.8401V71.4101H107.65V30.5801Z" fill="#002856"/>
<path d="M66.6199 57.9001L55.5999 30.5801H43.4099L58.0099 65.3501C58.9299 67.4701 60.0899 69.0101 61.4799 69.9801C62.8299 70.9201 64.5399 71.4201 66.6299 71.4201C68.7199 71.4201 70.4199 70.9201 71.7799 69.9801C73.1699 69.0201 74.3199 67.4701 75.2499 65.3501L89.8499 30.5801H77.6599L66.6399 57.9001H66.6199Z" fill="#002856"/>
<path d="M188.9 36.6501C187.98 34.5301 186.82 32.9901 185.43 32.0201C184.08 31.0801 182.37 30.5801 180.28 30.5801C178.19 30.5801 176.49 31.0801 175.13 32.0201C173.74 32.9801 172.59 34.5301 171.66 36.6501L157.06 71.4201H169.25L180.27 44.1001L191.29 71.4201H203.48L188.88 36.6501H188.9Z" fill="#002856"/>
<path d="M37.39 61.8203H0V71.4203H37.39V61.8203Z" fill="#002856"/>
<path d="M37.39 46.2002H0V55.8002H37.39V46.2002Z" fill="#002856"/>
</svg>
