<?xml version="1.0" encoding="UTF-8"?>
<svg id="Layer_2" data-name="Layer 2" xmlns="http://www.w3.org/2000/svg" viewBox="0 0 77.17 77.18">
  <g id="WEB">
    <g>
      <path d="M50.57,43.04v-.42h2.66v2.64h2.68c0,.87,0,1.74,0,2.61h5.33v-2.64h2.62v-2.61h-2.61v-2.71c.87,0,1.74,0,2.61,0,0,.9,0,1.8,.01,2.7h5.35v-2.72h2.6v-2.64h-2.62v-.49c0-2.35,0-4.7,0-7.06,0-.17-.02-.35-.03-.52-.14,.03-.28,.08-.42,.08-1.48,0-2.96,0-4.43,0-.13,0-.27-.01-.46-.02v-7.94h-5.29v5.32h2.65c0,.79-.02,1.53,0,2.26,0,.32-.1,.39-.4,.39-1.53-.01-3.06,0-4.6,0-.1,0-.21-.02-.36-.04V15.97h-2.66v2.67h-2.65v2.61h2.61v8h-2.6v2.67h2.62v2.63c1.41,0,2.83,.02,4.24,.03,.35,0,.7,0,1.09,0v2.7h2.7v2.61h-5.34v-2.62h-2.71v-2.71h-5.29v2.71h-2.67v2.64h2.63v2.64h-7.97v-2.64h-2.6v-2.6h-2.72v7.91h-2.66v-5.28h-2.66v5.3h-2.65c-.01,.91-.03,1.83-.04,2.74-.1-.02-.2-.07-.3-.07-1.58,0-3.16,0-4.74,0-.09,0-.17,.03-.26,.05,0,.87,0,1.74,0,2.61h2.71v2.63h2.63v2.71h2.65v-2.64h2.67v2.64h.47c1.49,0,2.98,0,4.47,0,.14,0,.29,.02,.43,.04,0,.85,0,1.7,0,2.6h-10.69v2.7h-2.64c-.01,.11-.02,.16-.02,.22,0,2.49,0,4.97,0,7.46,0,.09,.03,.18,.05,.26-.9,0-1.81,0-2.7,0v5.37h2.66v2.62h10.63v-5.27h2.68v2.68h2.6v-2.71h2.7v-2.65h-2.65c0-.21,0-.37,0-.53,0-1.59-.01-3.19-.02-4.78,.89,0,1.78,0,2.72,0v-5.36h5.27v-2.65h-2.61v-10.63h2.64v2.64c.63,0,1.21,0,1.8,0,.28,0,.55,.04,.83,.07,.01-.17,.03-.34,.03-.52,0-1.47,0-2.95,0-4.42Zm13.31-8.46v-2.63h2.64v7.94h-2.64v-2.62h-2.62v-2.68h2.62Zm-5.36,8.03v2.63c-.86,0-1.72,0-2.59,0v-2.63h2.59Zm-29.3,7.94h-2.66c0-.86,0-1.71,0-2.56,.18-.03,.36-.08,.54-.08,.69,0,1.39,0,2.12,0v2.64Zm5.33,18.65h-2.61v5.31h-5.33v-2.61h-2.67c0-.32,0-.6,0-.88,.02-.61,.04-1.22,.06-1.82h2.58v-2.63h5.31v-2.66h-2.61v-2.64h5.27v7.95Zm2.73-23.93h5.27v5.28h-2.63v-2.65h-2.64v-2.63Zm-2.68,7.89v-2.57h2.69c0,.87,0,1.72,0,2.57h-2.69Zm2.68,10.72v-2.63h2.59c0,.87,0,1.75,0,2.63h-2.59Zm5.27-8c-.14,0-.29,.02-.43,.02-1.46,0-2.93,0-4.39,0-.15,0-.29,.02-.43,.03,0-.92,0-1.84,0-2.76,.14,.02,.29,.05,.43,.05,1.45,0,2.9,0,4.35,0,.15,0,.29,0,.47,0v2.65Z"/>
      <path d="M21.26,47.96h0s-.01-.01-.02-.01v.02s.01,0,.02,0Z"/>
      <polygon points="63.87 42.62 63.88 42.62 63.88 42.61 63.87 42.61 63.87 42.62"/>
      <polygon points="37.3 37.3 37.3 37.31 37.31 37.31 37.3 37.3"/>
      <path d="M53.19,34.57h.01s0-.01-.01-.01h0Z"/>
      <polygon points="39.87 74.58 39.86 74.58 39.86 74.59 39.87 74.58"/>
      <path d="M66.55,64.44v-.54h2.65v-2.65h2.63c0-.9,0-1.8,0-2.7h-2.59v-7.98h2.59v-2.68h-2.63v-2.63h-2.66v2.66h-2.64v2.65h2.61v2.63h-5.31v-2.64h-7.99v-2.65c-.79,0-1.54,0-2.29,0-.13,0-.25,.05-.37,.08,0,.85,0,1.7,0,2.59h-2.62v2.65h2.64v2.68h2.62v5.32h-2.63v.49c0,1.44,0,2.87,0,4.31,0,1.06,.01,2.13,.02,3.19,.85-.01,1.71-.02,2.56-.04,.02,.16,.07,.31,.07,.47,0,2.34,0,4.68,0,7.02v.49h5.29v-2.64h-2.59v-2.66h2.63v-5.29h2.67v5.29c.96,0,1.88,0,2.79,0,.85,0,1.71-.02,2.56-.04-.01-.2-.03-.4-.03-.6,0-2.27,0-4.53,0-6.8Zm-10.68,4.74c-.9,0-1.81,0-2.71,0,.02-.39,.05-.77,.06-1.16,.01-.47,0-.95,0-1.44h2.65v2.6Zm7.99-5.32h-7.94v-7.92h7.94v7.92Z"/>
      <path d="M66.58,71.83s0,.01,0,.02h.02v-.02h-.02Z"/>
      <path d="M50.55,47.98s0,0,0,0c0,0,0,0,0,.01,0,0,0,0,.01,0h0s0,0,0,0Z"/>
      <path d="M71.83,61.24h0s0,.01,.01,.01h0s0-.01-.01-.01Z"/>
      <path d="M50.59,69.23s0,0,0-.01h0Z"/>
      <path d="M50.58,18.64h0s0-.01-.01-.01h0s0,.01,.01,.01Z"/>
      <polygon points="69.18 29.17 69.18 29.18 69.18 29.18 69.18 29.17"/>
      <path d="M18.59,0H.01V18.59H18.59V0Zm-2.69,15.91H2.65V2.64H15.9V15.91Z"/>
      <path d="M77.16,0h-18.59V18.59h18.59V0Zm-2.63,15.9h-13.27V2.65h13.27V15.9Z"/>
      <path d="M0,77.18H18.58v-18.6H0v18.6Zm2.64-15.93H15.92v13.26H2.65v-13.26Z"/>
      <polygon points="26.59 18.64 26.6 18.64 26.59 18.63 26.59 18.64"/>
      <polygon points="18.66 29.19 18.66 29.19 18.66 29.18 18.66 29.19"/>
      <path d="M18.64,31.93h-.01s0,.01,.01,.01c0,0,0,0,0-.01Z"/>
      <path d="M21.26,34.55h2.69v2.69h5.28v-15.97h-2.65v-2.63h-2.62v-2.72h2.62v-2.6h-5.3v7.96h2.65c0,.77-.02,1.51,0,2.24,.01,.34-.1,.45-.44,.44-.73-.02-1.47,0-2.25,0v5.32c-.55,0-1.06,0-1.56,0-.35,0-.69-.04-1.04-.07,0,.91-.02,1.82-.02,2.74h2.62v2.62Zm2.7-5.25h2.62v2.61h-2.62v-2.61Z"/>
      <polygon points="5.37 45.2 5.37 45.2 5.37 45.2 5.37 45.2"/>
      <path d="M21.25,50.58h.01s0-.01-.01-.01h0Z"/>
      <polygon points="23.96 53.21 23.97 53.21 23.97 53.2 23.96 53.2 23.96 53.21"/>
      <path d="M23.96,55.92v-2.71h-2.71v-2.63c-.86,0-1.72,.01-2.58,.02-.01-.88-.03-1.76-.04-2.64-.16-.02-.31-.05-.47-.05-1.46,0-2.93,0-4.39,0h-.49v-2.64h-2.66v2.62h-2.66v-2.68h-2.58c-.02,.16-.07,.31-.07,.47,0,1.48,0,2.96,0,4.43v.48H0v2.64H.47c1.44,0,2.87,0,4.31,0q.52,0,.52,.54c0,.48,0,.96,0,1.44v.67h2.67v-5.26h5.28v2.64h-2.61v2.66h10.63v2.63h5.32c0-.87,0-1.74,0-2.61h-2.63Zm-5.35-2.72h-2.65v-2.59c.91,0,1.8,0,2.69,0-.01,.68-.03,1.35-.04,2.03,0,.18,0,.35,0,.56Z"/>
      <path d="M26.59,58.53h0s0,.01,.01,.01h0s0-.01-.01-.01Z"/>
      <polygon points="26.59 55.92 26.6 55.92 26.6 55.91 26.59 55.91 26.59 55.92"/>
      <path d="M42.62,21.25h-.02s.01,.01,.02,.01h0s0-.01,0-.01Z"/>
      <path d="M42.6,18.64h.01s0,0,0-.01h-.01Z"/>
      <path d="M39.94,18.64V10.57h2.67v-2.61h-5.36V2.65h-2.66v.51c0,3.22,0,6.43,0,9.65,0,.17-.04,.34-.06,.51-.86,0-1.72-.01-2.58-.02v7.97h2.63v2.69h2.7v2.6h2.66v-5.32h2.68c0-.87,0-1.74,0-2.61h-2.67Zm-2.7-.05h-2.65v-.44c0-1.46,0-2.92,0-4.38,0-.14-.03-.29-.05-.43h2.71v5.25Z"/>
      <path d="M31.93,13.3s0,0,.01,0h0s-.01,0-.01,0Z"/>
      <path d="M18.62,34.55c0-.87,0-1.74,0-2.61-.17,0-.35-.01-.52-.01-4.99,0-9.99,0-14.98,0h-.51v-2.64H0v7.94H5.3v-2.61h2.67v2.65h7.94v-2.71h2.71Z"/>
      <path d="M18.62,34.55h0s0,.01,.01,.01h0s0-.01-.01-.01Z"/>
      <path d="M15.91,37.27h0s0,.01,0,.01c0,0,0,0,0-.01h0Z"/>
      <path d="M47.91,13.27h-2.68v-2.68c-.87,0-1.74,0-2.61,0-.01,.14-.03,.29-.03,.43,0,2.39,0,4.78,0,7.17,0,.14,.02,.29,.03,.43,.87,0,1.74,0,2.61,0v-2.66h2.73v2.66c.87,0,1.74,0,2.61,0V10.59h-2.61c-.02,.7-.03,1.4-.05,2.11,0,.19,0,.37,0,.58Z"/>
      <path d="M47.95,10.59s0,0,0-.01h-.01s0,0,0,.01h0Z"/>
      <path d="M45.23,18.63h0s0,.01,.01,.01h0s0-.01-.01-.01Z"/>
      <path d="M42.62,10.59s0,0,0-.01h-.01s0,.01,.01,.01Z"/>
      <path d="M76.87,71.87c.09,0,.18-.01,.29-.02v-2.65h-2.62v-7.94h-2.7v5.27h-2.63v5.3c.09,.01,.18,.03,.27,.03,2.46,0,4.92,0,7.38,0Z"/>
      <path d="M74.55,61.26h.01s0,0-.01,0h0Z"/>
      <path d="M47.89,61.26h-2.62v10.63h2.64v2.63h2.67v-5.29c-.88,0-1.76,0-2.69,0v-7.98Z"/>
      <path d="M50.59,69.23s-.01-.01-.01-.01h0s0,.01,.01,.01Z"/>
      <path d="M71.85,50.58s0,0,0-.01h-.01s0,.01,.01,.01Z"/>
      <path d="M71.85,58.53h-.01s0,.01,.01,.01c0,0,0,0,0-.01Z"/>
      <path d="M71.85,58.53h2.71v2.72h2.6v-5.37h-2.59v-5.27c-.91,0-1.82-.02-2.73-.02,0,.91,.02,1.82,.02,2.73,0,1.74-.01,3.48-.02,5.22Z"/>
      <path d="M53.2,5.33h-2.62v2.6h5.3V0h-5.3V2.61h2.62v2.72Z"/>
      <path d="M50.58,2.61h-.01s0,0,.01,0h0Z"/>
      <path d="M47.91,26.09c0-2.33,0-4.65,0-6.98,0-.16,.02-.32,.03-.47-.9,0-1.8,0-2.7,0v2.63h-2.62v2.68h2.62v2.65h2.67v-.5Z"/>
      <path d="M47.94,18.64h.01s0-.01-.01-.01h0Z"/>
      <path d="M45.24,26.59h-.01s0,.01,.01,.01h0Z"/>
      <path d="M7.95,26.58h0s.01,0,.01,0h-.01Z"/>
      <path d="M2.65,21.3v5.28H7.95v-5.28H2.65Z"/>
      <path d="M66.6,74.56h-5.34v2.62h7.95v-5.33c-.87,0-1.74,0-2.61,0v2.71Z"/>
      <path d="M69.21,71.85h.01s0-.01-.01-.01h0Z"/>
      <path d="M26.6,7.92h2.66c0-1.73,0-3.42,0-5.12,0-.07-.05-.15-.07-.22h-2.6V0h-2.61V5.31h2.63v2.62Z"/>
      <polygon points="29.18 2.58 29.18 2.58 29.18 2.58 29.18 2.58"/>
      <path d="M77.16,42.62h-5.26v2.63h2.64c0,1,0,1.97,0,2.94,0,.8,.02,1.6,.04,2.4,.86,0,1.73,0,2.58,0v-7.97Z"/>
      <path d="M74.58,50.59h-.01s0,0,0,0h0s0,.01,.01,.01c0,0,0,0,0-.01Z"/>
      <polygon points="15.88 39.86 15.88 39.87 15.89 39.87 15.88 39.86"/>
      <path d="M15.44,39.91c-2.34,0-4.67,0-7.01,0h-.46v2.68h.51c2.31,0,4.62,0,6.92,0,.16,0,.31,.03,.47,.05,0-.92,0-1.84,0-2.77-.15,.01-.29,.04-.44,.04Z"/>
      <path d="M21.3,39.94v2.66h2.64v2.63h2.65c0-1.77,0-3.53,0-5.29h-5.29Z"/>
      <path d="M26.59,45.23h0s0,.01,0,.01h.01s0,0,0-.01h-.01Z"/>
      <path d="M45.21,2.61V0h-5.28V5.33h2.67c0-.89,0-1.78,0-2.72h2.61Z"/>
      <path d="M45.24,10.57h-.01s0,.01,.01,.01h0Z"/>
      <path d="M45.24,10.57h2.7c-.01-.06-.03-.12-.03-.18,0-1.59,0-3.18,0-4.77,0-.09,.04-.17,.06-.26-.16-.02-.31-.05-.47-.06-1.06,0-2.12,0-3.19,0-.57,0-1.13,.02-1.7,.03,0,.87,0,1.74,0,2.61h2.62v2.62Z"/>
      <path d="M42.62,7.95h-.02s.01,.01,.02,.01c0,0,0,0,0-.01Z"/>
      <polygon points="47.97 5.35 47.97 5.36 47.98 5.36 47.97 5.35"/>
      <polygon points="42.61 5.33 42.6 5.33 42.6 5.34 42.61 5.34 42.61 5.33 42.61 5.33"/>
      <path d="M5.3,42.62H0v5.26H2.64v-2.64c.21,0,.39,0,.56,0,.72-.01,1.44-.03,2.17-.04-.02-.21-.06-.42-.06-.63,0-.65,0-1.3,0-1.95Z"/>
      <polygon points="5.37 45.2 5.37 45.2 5.37 45.2 5.37 45.2"/>
      <path d="M74.56,29.23h2.6v-5.25h-5.29c0,.37,0,.71,0,1.05-.01,.51-.04,1.02-.06,1.54h2.75v2.67Z"/>
      <polygon points="71.81 26.56 71.8 26.56 71.81 26.57 71.81 26.56"/>
      <path d="M69.24,26.56h-.01s0,.01,0,.01c0,0,0,0,0-.01,0,0,0,0,0,0Z"/>
      <path d="M66.57,21.29v5.27h2.66c0-1.75,0-3.51,0-5.27h-2.66Z"/>
      <polygon points="10.55 26.57 10.55 26.56 10.54 26.56 10.55 26.57"/>
      <path d="M15.48,23.94c-1.36,0-2.73,0-4.09,0h-.78c0,.49,0,.93,0,1.38-.01,.41-.04,.83-.06,1.24,.17,.01,.35,.03,.52,.03,1.6,0,3.21,.01,4.81,.02,.01-.88,.02-1.76,.04-2.64-.15-.01-.29-.04-.44-.04Z"/>
      <polygon points="15.92 23.97 15.92 23.98 15.93 23.98 15.92 23.97"/>
      <path d="M42.61,31.94c-.01,.06-.03,.13-.03,.19,0,1.61,0,3.23,0,4.84,0,.09,.03,.18,.05,.3h2.59v-5.33h-2.61Z"/>
      <path d="M45.23,37.27h0s0,0,.01,0h0s0,0-.01,0Z"/>
      <polygon points="39.87 74.58 39.86 74.59 39.87 74.59 39.87 74.58"/>
      <path d="M45.21,77.17v-2.62c-1.56,0-3.09,0-4.62,0-.24,0-.48,.03-.72,.04,0,.85,0,1.71,0,2.58h5.34Z"/>
      <path d="M76.37,34.58c-.6-.01-1.19-.03-1.79-.05-.01,.06-.04,.13-.04,.19,0,1.68,0,3.37,0,5.05,0,.04,.03,.07,.04,.11h2.58v-5.3c-.28,0-.54,0-.8,0Z"/>
      <polygon points="74.58 34.53 74.59 34.53 74.59 34.52 74.58 34.53"/>
      <path d="M18.59,21.3h-2.66v2.67h2.66v-2.67Z"/>
      <polygon points="15.92 23.97 15.93 23.98 15.93 23.97 15.92 23.97"/>
      <path d="M39.94,29.23v2.7h2.67c0-.9,0-1.8,0-2.7h-2.67Z"/>
      <path d="M42.6,31.93h0s0,.01,.01,.01c0,0,0,0,0-.01h-.01Z"/>
      <path d="M29.29,10.66v2.64h2.64c0-.88,0-1.76,0-2.64h-2.64Z"/>
      <path d="M31.93,13.3s.01-.01,.01-.01h-.01Z"/>
      <polygon points="15.9 42.63 15.89 42.63 15.89 42.64 15.9 42.64 15.9 42.63 15.9 42.63"/>
      <path d="M15.9,42.64c0,.85,0,1.7,0,2.56h2.76v-2.56c-.98,0-1.87,0-2.76,0Z"/>
      <polygon points="18.66 45.2 18.66 45.2 18.66 45.21 18.66 45.21 18.66 45.2 18.66 45.2"/>
      <polygon points="29.18 2.58 29.18 2.58 29.18 2.58 29.18 2.58"/>
      <path d="M31.91,0h-2.64c0,.7,0,1.37,0,2.03,0,.18-.05,.36-.08,.54h2.72V0Z"/>
      <path d="M18.64,47.94h-.02s0,0,0,.01c0,0,.01,0,.02,0v-.02Z"/>
      <path d="M21.25,45.21h-2.58c0,.91-.02,1.82-.02,2.73,.87,0,1.74,0,2.61,0v-2.73Z"/>
      <polygon points="50.57 5.33 50.57 5.33 50.58 5.33 50.58 5.33 50.57 5.33"/>
      <polygon points="47.97 5.35 47.98 5.36 47.98 5.35 47.97 5.35"/>
      <path d="M50.57,2.62h-2.66c0,.62,0,1.18,0,1.73,0,.33,.05,.66,.07,1,.86,0,1.73-.02,2.59-.02,0-.9,0-1.8,0-2.71Z"/>
      <path d="M18.63,37.28h.01s0-.01-.01-.01h0Z"/>
      <polygon points="15.88 39.86 15.89 39.87 15.89 39.86 15.88 39.86"/>
      <path d="M18.63,37.28h-2.7c-.01,.86-.02,1.72-.03,2.58,.9,0,1.8,0,2.74,0v-2.58Z"/>
      <polygon points="37.3 37.3 37.31 37.31 37.31 37.3 37.3 37.3"/>
      <path d="M39.89,34.61h-2.58v2.69c.86,0,1.72,0,2.58,0v-2.69Z"/>
      <path d="M18.64,37.27h2.61v-2.7h-2.61c0,.9,0,1.8,0,2.7Z"/>
      <path d="M21.25,34.57h.02v-.02h-.02v.02Z"/>
      <polygon points="74.58 34.53 74.59 34.52 74.58 34.52 74.58 34.53"/>
      <path d="M71.9,31.96v2.56h2.67c0-.85,0-1.7,0-2.56h-2.67Z"/>
      <path d="M23.93,10.4c.02-.8,0-1.6,0-2.41h-2.65v2.63c.82,0,1.63,0,2.43,0,.08,0,.21-.14,.21-.21Z"/>
      <polygon points="26.6 15.92 26.6 15.91 26.59 15.91 26.59 15.92 26.6 15.92"/>
      <path d="M29.23,18.63v-2.71h-2.63c0,.9,0,1.8,0,2.71h2.63Z"/>
      <polygon points="26.6 18.64 26.6 18.63 26.59 18.63 26.6 18.64"/>
      <polygon points="18.66 29.19 18.66 29.18 18.66 29.18 18.66 29.19"/>
      <path d="M15.89,26.62h-.01s0,0,0,0h.01s0,0,0,0Z"/>
      <path d="M15.9,26.63c0,.86,0,1.73,0,2.64,.73,0,1.37,0,2.01,0,.25,0,.5-.05,.75-.07,0-.85,0-1.7,0-2.56-.98,0-1.87,0-2.76,0Z"/>
      <path d="M7.96,29.23h2.65c0-.64,0-1.26,0-1.87,0-.26-.05-.53-.07-.79-.86,0-1.72,.01-2.58,.02,0,.88,0,1.76,0,2.64Z"/>
      <path d="M7.95,26.6h.01s-.01,0-.01,0Z"/>
      <polygon points="10.55 26.57 10.54 26.56 10.54 26.57 10.55 26.57"/>
      <path d="M31.96,26.57h2.59v-2.59h-2.59v2.59Z"/>
      <polygon points="34.56 23.98 34.57 23.98 34.57 23.98 34.57 23.97 34.56 23.97 34.56 23.98"/>
      <path d="M45.23,26.6h-2.62v2.62h2.62v-2.62Z"/>
      <polygon points="42.61 29.22 42.61 29.22 42.61 29.23 42.61 29.23 42.61 29.22"/>
      <polygon points="69.18 29.18 69.18 29.18 69.18 29.18 69.18 29.18"/>
      <polygon points="71.8 26.56 71.8 26.57 71.81 26.57 71.8 26.56"/>
      <path d="M71.87,27.69c0-.37-.04-.75-.07-1.12-.85,0-1.71,0-2.56,0,0,.15-.02,.29-.03,.44-.01,.72-.02,1.44-.03,2.16,.88,.04,1.77,.08,2.69,.12,0-.6,0-1.11,0-1.61Z"/>
      <path d="M74.57,77.16h2.6v-2.6h-2.6v2.6Z"/>
      <path d="M61.2,58.59h-2.63v2.62h2.63v-2.62Z"/>
      <path d="M13.27,5.32H5.32v7.93h7.95V5.32Z"/>
      <path d="M71.84,5.33h-7.94v7.94h7.94V5.33Z"/>
      <path d="M5.33,71.84h7.94v-7.94H5.33v7.94Z"/>
    </g>
  </g>
</svg>