<svg width="32" height="32" viewBox="0 0 32 32" fill="none" xmlns="http://www.w3.org/2000/svg">
<path d="M28.7107 7.97497C28.7311 8.32495 28.7311 8.67501 28.7311 9.025C28.7311 19.6999 22.1321 32 10.0711 32C6.35534 32 2.90357 30.6749 0 28.375C0.52794 28.45 1.0355 28.475 1.58376 28.475C4.64971 28.475 7.47209 27.2 9.72591 25.025C6.84265 24.95 4.42639 22.625 3.59389 19.425C4.00002 19.4999 4.40608 19.55 4.83252 19.55C5.42133 19.55 6.01021 19.4499 6.5584 19.275C3.55333 18.5249 1.29944 15.275 1.29944 11.35V11.25C2.17251 11.85 3.18783 12.225 4.26389 12.275C2.49738 10.8249 1.34007 8.34996 1.34007 5.54994C1.34007 4.04997 1.66488 2.67497 2.23345 1.47496C5.4619 6.37496 10.3147 9.5749 15.7563 9.92497C15.6548 9.32496 15.5939 8.70002 15.5939 8.07501C15.5939 3.62496 18.5178 0 22.1523 0C24.0406 0 25.7462 0.974998 26.9442 2.55C28.4264 2.20002 29.8477 1.52498 31.1066 0.600004C30.6192 2.47505 29.5837 4.05005 28.2234 5.04998C29.5432 4.87506 30.8224 4.42496 32 3.80003C31.1067 5.39996 29.9899 6.8249 28.7107 7.97497V7.97497Z" fill="white"/>
</svg>
