<?xml version="1.0" encoding="UTF-8"?>
<svg id="Layer_2" data-name="Layer 2" xmlns="http://www.w3.org/2000/svg" viewBox="0 0 2140 650">
  <defs>
    <style>
      .cls-1 {
        letter-spacing: 0em;
      }

      .cls-2 {
        letter-spacing: .02em;
      }

      .cls-3 {
        letter-spacing: -.07em;
      }

      .cls-4 {
        letter-spacing: 0em;
      }

      .cls-5 {
        letter-spacing: -.05em;
      }

      .cls-6, .cls-7, .cls-8 {
        fill: #2ed9c3;
      }

      .cls-9 {
        letter-spacing: 0em;
      }

      .cls-10 {
        letter-spacing: 0em;
      }

      .cls-11 {
        letter-spacing: .01em;
      }

      .cls-12 {
        letter-spacing: 0em;
      }

      .cls-13 {
        letter-spacing: 0em;
      }

      .cls-14 {
        letter-spacing: 0em;
      }

      .cls-15 {
        letter-spacing: 0em;
      }

      .cls-16 {
        letter-spacing: .01em;
      }

      .cls-17 {
        letter-spacing: 0em;
      }

      .cls-18 {
        letter-spacing: -.07em;
      }

      .cls-19 {
        letter-spacing: 0em;
      }

      .cls-20 {
        letter-spacing: 0em;
      }

      .cls-21 {
        letter-spacing: 0em;
      }

      .cls-22 {
        letter-spacing: .01em;
      }

      .cls-23 {
        letter-spacing: .01em;
      }

      .cls-24 {
        letter-spacing: 0em;
      }

      .cls-25 {
        letter-spacing: 0em;
      }

      .cls-26 {
        letter-spacing: 0em;
      }

      .cls-27 {
        letter-spacing: 0em;
      }

      .cls-28 {
        letter-spacing: 0em;
      }

      .cls-7, .cls-8, .cls-29, .cls-30 {
        font-family: Eina01-SemiBold, Eina01-SemiBold;
      }

      .cls-7, .cls-30 {
        font-size: 17.84px;
      }

      .cls-31 {
        letter-spacing: -.07em;
      }

      .cls-32 {
        letter-spacing: 0em;
      }

      .cls-33 {
        letter-spacing: .01em;
      }

      .cls-34 {
        letter-spacing: 0em;
      }

      .cls-35 {
        letter-spacing: 0em;
      }

      .cls-36 {
        letter-spacing: 0em;
      }

      .cls-37 {
        letter-spacing: 0em;
      }

      .cls-38 {
        letter-spacing: -.02em;
      }

      .cls-39 {
        letter-spacing: 0em;
      }

      .cls-40 {
        letter-spacing: 0em;
      }

      .cls-41 {
        letter-spacing: 0em;
      }

      .cls-42 {
        letter-spacing: 0em;
      }

      .cls-43 {
        letter-spacing: -.07em;
      }

      .cls-44 {
        letter-spacing: -.07em;
      }

      .cls-45 {
        letter-spacing: 0em;
      }

      .cls-46 {
        letter-spacing: 0em;
      }

      .cls-47 {
        letter-spacing: 0em;
      }

      .cls-48 {
        letter-spacing: 0em;
      }

      .cls-49 {
        letter-spacing: .01em;
      }

      .cls-50 {
        letter-spacing: 0em;
      }

      .cls-51 {
        letter-spacing: -.01em;
      }

      .cls-52 {
        letter-spacing: 0em;
      }

      .cls-53 {
        letter-spacing: 0em;
      }

      .cls-54 {
        letter-spacing: 0em;
      }

      .cls-55 {
        letter-spacing: 0em;
      }

      .cls-56 {
        fill: #002856;
      }

      .cls-57 {
        letter-spacing: 0em;
      }

      .cls-58 {
        letter-spacing: 0em;
      }

      .cls-59 {
        letter-spacing: 0em;
      }

      .cls-60 {
        letter-spacing: 0em;
      }

      .cls-61 {
        letter-spacing: 0em;
      }

      .cls-62 {
        letter-spacing: 0em;
      }

      .cls-63 {
        letter-spacing: 0em;
      }

      .cls-64 {
        letter-spacing: 0em;
      }

      .cls-65 {
        letter-spacing: 0em;
      }

      .cls-66 {
        letter-spacing: 0em;
      }

      .cls-67 {
        letter-spacing: 0em;
      }

      .cls-68 {
        letter-spacing: 0em;
      }

      .cls-69 {
        letter-spacing: 0em;
      }

      .cls-8 {
        font-size: 23px;
      }

      .cls-70 {
        letter-spacing: 0em;
      }

      .cls-71 {
        letter-spacing: 0em;
      }

      .cls-72 {
        letter-spacing: 0em;
      }

      .cls-73 {
        letter-spacing: -.02em;
      }

      .cls-74 {
        letter-spacing: 0em;
      }

      .cls-75 {
        letter-spacing: 0em;
      }

      .cls-76 {
        letter-spacing: 0em;
      }

      .cls-77 {
        letter-spacing: 0em;
      }

      .cls-78 {
        letter-spacing: 0em;
      }

      .cls-79 {
        letter-spacing: 0em;
      }

      .cls-80 {
        letter-spacing: 0em;
      }

      .cls-81 {
        letter-spacing: -.03em;
      }

      .cls-82 {
        letter-spacing: -.03em;
      }

      .cls-83 {
        letter-spacing: -.01em;
      }

      .cls-84 {
        letter-spacing: 0em;
      }

      .cls-85 {
        letter-spacing: 0em;
      }

      .cls-86 {
        letter-spacing: 0em;
      }

      .cls-87 {
        letter-spacing: 0em;
      }

      .cls-88 {
        letter-spacing: 0em;
      }

      .cls-89 {
        letter-spacing: 0em;
      }

      .cls-90 {
        letter-spacing: 0em;
      }

      .cls-91 {
        letter-spacing: 0em;
      }

      .cls-92 {
        letter-spacing: -.02em;
      }

      .cls-93 {
        letter-spacing: 0em;
      }

      .cls-94 {
        letter-spacing: 0em;
      }

      .cls-95 {
        letter-spacing: 0em;
      }

      .cls-96 {
        letter-spacing: 0em;
      }

      .cls-97 {
        letter-spacing: -.06em;
      }

      .cls-98 {
        letter-spacing: .02em;
      }

      .cls-99 {
        letter-spacing: 0em;
      }

      .cls-100 {
        letter-spacing: 0em;
      }

      .cls-29 {
        font-size: 13.98px;
      }

      .cls-29, .cls-30 {
        fill: #fff;
      }

      .cls-101 {
        letter-spacing: 0em;
      }

      .cls-102 {
        letter-spacing: 0em;
      }

      .cls-103 {
        letter-spacing: 0em;
      }

      .cls-104 {
        letter-spacing: 0em;
      }

      .cls-105 {
        letter-spacing: -.02em;
      }

      .cls-106 {
        letter-spacing: 0em;
      }

      .cls-107 {
        letter-spacing: 0em;
      }

      .cls-108 {
        letter-spacing: 0em;
      }

      .cls-109 {
        letter-spacing: 0em;
      }

      .cls-110 {
        letter-spacing: 0em;
      }

      .cls-111 {
        letter-spacing: 0em;
      }

      .cls-112 {
        letter-spacing: .02em;
      }

      .cls-113 {
        letter-spacing: 0em;
      }

      .cls-114 {
        letter-spacing: 0em;
      }

      .cls-115 {
        letter-spacing: -.01em;
      }

      .cls-116 {
        letter-spacing: 0em;
      }

      .cls-117 {
        letter-spacing: -.01em;
      }

      .cls-118 {
        letter-spacing: .04em;
      }

      .cls-119 {
        letter-spacing: 0em;
      }

      .cls-120 {
        letter-spacing: 0em;
      }

      .cls-121 {
        letter-spacing: 0em;
      }

      .cls-122 {
        letter-spacing: 0em;
      }

      .cls-123 {
        letter-spacing: 0em;
      }

      .cls-124 {
        letter-spacing: 0em;
      }

      .cls-125 {
        letter-spacing: .03em;
      }

      .cls-126 {
        letter-spacing: 0em;
      }

      .cls-127 {
        letter-spacing: 0em;
      }

      .cls-128 {
        letter-spacing: 0em;
      }

      .cls-129 {
        letter-spacing: 0em;
      }

      .cls-130 {
        letter-spacing: 0em;
      }

      .cls-131 {
        letter-spacing: -.02em;
      }

      .cls-132 {
        letter-spacing: 0em;
      }

      .cls-133 {
        letter-spacing: -.05em;
      }

      .cls-134 {
        letter-spacing: 0em;
      }

      .cls-135 {
        letter-spacing: 0em;
      }

      .cls-136 {
        letter-spacing: 0em;
      }

      .cls-137 {
        letter-spacing: 0em;
      }

      .cls-138 {
        letter-spacing: 0em;
      }

      .cls-139 {
        letter-spacing: -.02em;
      }

      .cls-140 {
        letter-spacing: 0em;
      }

      .cls-141 {
        letter-spacing: 0em;
      }

      .cls-142 {
        letter-spacing: 0em;
      }

      .cls-143 {
        letter-spacing: 0em;
      }

      .cls-144 {
        letter-spacing: -.02em;
      }

      .cls-145 {
        letter-spacing: 0em;
      }

      .cls-146 {
        letter-spacing: -.06em;
      }
    </style>
  </defs>
  <g id="WEB">
    <g>
      <rect class="cls-56" width="2140" height="650"/>
      <text class="cls-30" transform="translate(370 223.53)"><tspan class="cls-139" x="0" y="0">E</tspan><tspan class="cls-124" x="11.07" y="0">v</tspan><tspan class="cls-108" x="20.75" y="0">i</tspan><tspan class="cls-28" x="25.34" y="0">t</tspan><tspan x="31.26" y="0">a </tspan><tspan class="cls-110" x="46.2" y="0">H</tspan><tspan class="cls-26" x="59.53" y="0">a</tspan><tspan class="cls-17" x="69.71" y="0">k</tspan><tspan class="cls-22" x="79.89" y="0">k</tspan><tspan class="cls-101" x="90.14" y="0">ı</tspan><tspan class="cls-79" x="94.76" y="0">n</tspan><tspan class="cls-64" x="105.48" y="0">d</tspan><tspan x="116.75" y="0">a</tspan><tspan class="cls-145" x="0" y="37.47">K</tspan><tspan class="cls-47" x="12.4" y="37.47">ar</tspan><tspan class="cls-78" x="28.99" y="37.47">i</tspan><tspan class="cls-92" x="33.65" y="37.47">y</tspan><tspan class="cls-124" x="43" y="37.47">e</tspan><tspan x="53.45" y="37.47">r</tspan><tspan class="cls-131" x="0" y="74.94">K</tspan><tspan class="cls-113" x="12.05" y="74.94">u</tspan><tspan class="cls-71" x="22.59" y="74.94">r</tspan><tspan class="cls-113" x="29.05" y="74.94">u</tspan><tspan class="cls-4" x="39.6" y="74.94">m</tspan><tspan class="cls-127" x="56.05" y="74.94">s</tspan><tspan class="cls-48" x="65.08" y="74.94">a</tspan><tspan x="75.24" y="74.94">l </tspan><tspan class="cls-117" x="84.58" y="74.94">İ</tspan><tspan x="89.52" y="74.94">ş </tspan><tspan class="cls-72" x="103.37" y="74.94">B</tspan><tspan class="cls-66" x="115.31" y="74.94">ir</tspan><tspan class="cls-9" x="126.31" y="74.94">l</tspan><tspan class="cls-119" x="130.9" y="74.94">i</tspan><tspan class="cls-32" x="135.53" y="74.94">ğ</tspan><tspan x="146.71" y="74.94">i</tspan><tspan class="cls-121" x="0" y="112.41">İ</tspan><tspan class="cls-46" x="5" y="112.41">l</tspan><tspan class="cls-74" x="9.67" y="112.41">e</tspan><tspan class="cls-71" x="20.03" y="112.41">t</tspan><tspan class="cls-75" x="25.85" y="112.41">i</tspan><tspan class="cls-24" x="30.44" y="112.41">ş</tspan><tspan class="cls-66" x="39.73" y="112.41">i</tspan><tspan x="44.31" y="112.41">m</tspan><tspan class="cls-131" x="362.5" y="0">K</tspan><tspan class="cls-116" x="374.55" y="0">u</tspan><tspan class="cls-57" x="385.08" y="0">l</tspan><tspan class="cls-124" x="389.66" y="0">l</tspan><tspan class="cls-26" x="394.31" y="0">a</tspan><tspan class="cls-89" x="404.48" y="0">n</tspan><tspan class="cls-126" x="415.2" y="0">ı</tspan><tspan x="419.83" y="0">m </tspan><tspan class="cls-70" x="440.97" y="0">H</tspan><tspan class="cls-113" x="454.27" y="0">ü</tspan><tspan class="cls-61" x="464.81" y="0">k</tspan><tspan class="cls-113" x="474.92" y="0">ü</tspan><tspan x="485.46" y="0">m </tspan><tspan class="cls-92" x="506.6" y="0">v</tspan><tspan x="515.95" y="0">e </tspan><tspan class="cls-82" x="531.08" y="0">K</tspan><tspan class="cls-26" x="543.04" y="0">o</tspan><tspan class="cls-10" x="553.89" y="0">ş</tspan><tspan class="cls-67" x="563.19" y="0">u</tspan><tspan class="cls-96" x="573.73" y="0">l</tspan><tspan class="cls-124" x="578.3" y="0">l</tspan><tspan class="cls-26" x="582.95" y="0">a</tspan><tspan class="cls-102" x="593.13" y="0">r</tspan><tspan x="599.6" y="0">ı</tspan><tspan class="cls-85" x="362.5" y="37.47">K</tspan><tspan class="cls-87" x="375.09" y="37.47">i</tspan><tspan class="cls-69" x="379.67" y="37.47">ş</tspan><tspan class="cls-124" x="388.96" y="37.47">i</tspan><tspan class="cls-14" x="393.61" y="37.47">s</tspan><tspan class="cls-99" x="402.6" y="37.47">e</tspan><tspan x="413.05" y="37.47">l </tspan><tspan class="cls-133" x="422.38" y="37.47">V</tspan><tspan class="cls-124" x="433.77" y="37.47">e</tspan><tspan class="cls-137" x="444.22" y="37.47">r</tspan><tspan class="cls-84" x="450.64" y="37.47">i</tspan><tspan class="cls-95" x="455.23" y="37.47">l</tspan><tspan class="cls-124" x="459.9" y="37.47">e</tspan><tspan class="cls-137" x="470.35" y="37.47">ri</tspan><tspan x="481.34" y="37.47">n </tspan><tspan class="cls-82" x="496.74" y="37.47">K</tspan><tspan class="cls-12" x="508.69" y="37.47">o</tspan><tspan class="cls-141" x="519.59" y="37.47">r</tspan><tspan class="cls-113" x="526.05" y="37.47">u</tspan><tspan class="cls-143" x="536.59" y="37.47">n</tspan><tspan class="cls-45" x="547.25" y="37.47">m</tspan><tspan class="cls-25" x="563.68" y="37.47">a</tspan><tspan class="cls-20" x="573.91" y="37.47">s</tspan><tspan x="582.97" y="37.47">ı</tspan><tspan class="cls-50" x="362.5" y="74.94">Ç</tspan><tspan class="cls-124" x="376.44" y="74.94">e</tspan><tspan class="cls-65" x="386.89" y="74.94">r</tspan><tspan class="cls-73" x="393.32" y="74.94">e</tspan><tspan x="403.41" y="74.94">z </tspan><tspan class="cls-51" x="417.66" y="74.94">P</tspan><tspan class="cls-62" x="428.88" y="74.94">o</tspan><tspan class="cls-84" x="439.79" y="74.94">li</tspan><tspan class="cls-141" x="448.98" y="74.94">t</tspan><tspan class="cls-107" x="454.8" y="74.94">i</tspan><tspan class="cls-62" x="459.38" y="74.94">k</tspan><tspan class="cls-68" x="469.38" y="74.94">a</tspan><tspan class="cls-124" x="479.55" y="74.94">l</tspan><tspan class="cls-26" x="484.2" y="74.94">a</tspan><tspan class="cls-102" x="494.38" y="74.94">r</tspan><tspan x="500.85" y="74.94">ı</tspan><tspan class="cls-49" x="362.5" y="112.41">S</tspan><tspan class="cls-126" x="374.11" y="112.41">ı</tspan><tspan class="cls-105" x="378.73" y="112.41">k</tspan><tspan x="388.51" y="112.41">ça </tspan><tspan class="cls-93" x="413.65" y="112.41">S</tspan><tspan class="cls-12" x="425.05" y="112.41">o</tspan><tspan class="cls-141" x="435.94" y="112.41">r</tspan><tspan class="cls-67" x="442.4" y="112.41">u</tspan><tspan class="cls-124" x="452.94" y="112.41">l</tspan><tspan class="cls-26" x="457.59" y="112.41">a</tspan><tspan x="467.77" y="112.41">n </tspan><tspan class="cls-93" x="483.17" y="112.41">S</tspan><tspan class="cls-76" x="494.57" y="112.41">o</tspan><tspan class="cls-141" x="505.46" y="112.41">r</tspan><tspan class="cls-116" x="511.92" y="112.41">u</tspan><tspan class="cls-124" x="522.46" y="112.41">l</tspan><tspan class="cls-26" x="527.11" y="112.41">a</tspan><tspan x="537.29" y="112.41">r</tspan><tspan class="cls-142" x="725" y="0">I</tspan><tspan class="cls-45" x="730.1" y="0">n</tspan><tspan class="cls-59" x="740.79" y="0">s</tspan><tspan class="cls-28" x="749.86" y="0">t</tspan><tspan class="cls-19" x="755.77" y="0">a</tspan><tspan class="cls-134" x="765.93" y="0">g</tspan><tspan class="cls-124" x="777.05" y="0">r</tspan><tspan class="cls-26" x="783.54" y="0">a</tspan><tspan x="793.72" y="0">m</tspan><tspan class="cls-3" x="725" y="37.47">T</tspan><tspan class="cls-63" x="733.42" y="37.47">w</tspan><tspan class="cls-36" x="748.45" y="37.47">i</tspan><tspan class="cls-112" x="753.05" y="37.47">t</tspan><tspan class="cls-83" x="759.27" y="37.47">t</tspan><tspan class="cls-124" x="764.97" y="37.47">e</tspan><tspan x="775.42" y="37.47">r</tspan><tspan class="cls-18" x="725" y="74.94">Y</tspan><tspan class="cls-100" x="735" y="74.94">ou</tspan><tspan class="cls-64" x="756.51" y="74.94">t</tspan><tspan class="cls-113" x="762.32" y="74.94">u</tspan><tspan class="cls-15" x="772.87" y="74.94">b</tspan><tspan x="784.23" y="74.94">e</tspan><tspan class="cls-80" x="725" y="112.41">L</tspan><tspan class="cls-66" x="734.69" y="112.41">i</tspan><tspan class="cls-143" x="739.27" y="112.41">n</tspan><tspan class="cls-105" x="749.93" y="112.41">k</tspan><tspan class="cls-15" x="759.7" y="112.41">e</tspan><tspan class="cls-58" x="770.21" y="112.41">d</tspan><tspan class="cls-142" x="781.49" y="112.41">I</tspan><tspan x="786.59" y="112.41">n</tspan><tspan class="cls-132" x="1087.5" y="0">A</tspan><tspan class="cls-124" x="1099.69" y="0">p</tspan><tspan x="1111" y="0">p </tspan><tspan class="cls-55" x="1126.98" y="0">S</tspan><tspan class="cls-83" x="1138.44" y="0">t</tspan><tspan class="cls-12" x="1144.14" y="0">o</tspan><tspan class="cls-65" x="1155.03" y="0">r</tspan><tspan class="cls-114" x="1161.45" y="0">e</tspan><tspan class="cls-5" x="1171.92" y="0">’</tspan><tspan class="cls-64" x="1175.45" y="0">d</tspan><tspan class="cls-120" x="1186.72" y="0">a</tspan><tspan x="1196.9" y="0">n </tspan><tspan class="cls-81" x="1212.29" y="0">Y</tspan><tspan class="cls-104" x="1223.05" y="0">ü</tspan><tspan class="cls-41" x="1233.6" y="0">k</tspan><tspan class="cls-40" x="1243.78" y="0">l</tspan><tspan x="1248.45" y="0">e</tspan><tspan class="cls-42" x="1087.5" y="37.47">G</tspan><tspan class="cls-78" x="1102.07" y="37.47">oo</tspan><tspan class="cls-37" x="1123.95" y="37.47">g</tspan><tspan class="cls-95" x="1135.06" y="37.47">l</tspan><tspan x="1139.73" y="37.47">e </tspan><tspan class="cls-88" x="1154.86" y="37.47">P</tspan><tspan class="cls-124" x="1166.16" y="37.47">l</tspan><tspan class="cls-144" x="1170.81" y="37.47">a</tspan><tspan class="cls-125" x="1180.7" y="37.47">y</tspan><tspan class="cls-5" x="1190.87" y="37.47">’</tspan><tspan class="cls-21" x="1194.4" y="37.47">d</tspan><tspan class="cls-124" x="1205.69" y="37.47">e</tspan><tspan x="1216.14" y="37.47">n </tspan><tspan class="cls-81" x="1231.53" y="37.47">Y</tspan><tspan class="cls-113" x="1242.29" y="37.47">ü</tspan><tspan class="cls-54" x="1252.84" y="37.47">k</tspan><tspan class="cls-95" x="1263.02" y="37.47">l</tspan><tspan x="1267.69" y="37.47">e</tspan><tspan class="cls-44" x="1087.5" y="74.94">Y</tspan><tspan class="cls-26" x="1097.55" y="74.94">a</tspan><tspan class="cls-16" x="1107.72" y="74.94">k</tspan><tspan class="cls-126" x="1117.97" y="74.94">ı</tspan><tspan class="cls-89" x="1122.59" y="74.94">n</tspan><tspan class="cls-64" x="1133.31" y="74.94">d</tspan><tspan class="cls-120" x="1144.58" y="74.94">a</tspan><tspan x="1154.75" y="74.94">n </tspan><tspan class="cls-106" x="1170.15" y="74.94">S</tspan><tspan class="cls-64" x="1181.55" y="74.94">a</tspan><tspan class="cls-35" x="1191.77" y="74.94">ğ</tspan><tspan class="cls-126" x="1202.93" y="74.94">lı</tspan><tspan x="1212.19" y="74.94">k </tspan><tspan class="cls-110" x="1226.89" y="74.94">H</tspan><tspan class="cls-129" x="1240.23" y="74.94">a</tspan><tspan class="cls-2" x="1250.36" y="74.94">t</tspan><tspan class="cls-135" x="1256.58" y="74.94">t</tspan><tspan x="1262.57" y="74.94">ı</tspan></text>
      <text class="cls-8" transform="translate(370 158.37)"><tspan class="cls-33" x="0" y="0">E</tspan><tspan class="cls-128" x="14.89" y="0">VI</tspan><tspan class="cls-31" x="37.17" y="0">T</tspan><tspan x="48.2" y="0">A</tspan><tspan class="cls-146" x="362.5" y="0">Y</tspan><tspan class="cls-53" x="375.52" y="0">AS</tspan><tspan class="cls-123" x="405.33" y="0">A</tspan><tspan x="420.94" y="0">L</tspan><tspan class="cls-43" x="725" y="0">T</tspan><tspan class="cls-52" x="736.03" y="0">A</tspan><tspan class="cls-77" x="751.64" y="0">K</tspan><tspan class="cls-140" x="767.75" y="0">İ</tspan><tspan x="774.41" y="0">P </tspan><tspan class="cls-11" x="795.18" y="0">E</tspan><tspan x="810.07" y="0">T</tspan><tspan class="cls-138" x="1087.5" y="0">B</tspan><tspan class="cls-115" x="1102.88" y="0">İ</tspan><tspan class="cls-86" x="1109.24" y="0">Z</tspan><tspan x="1124.32" y="0">E </tspan><tspan class="cls-140" x="1144.93" y="0">U</tspan><tspan class="cls-118" x="1162.05" y="0">L</tspan><tspan class="cls-13" x="1175.44" y="0">A</tspan><tspan class="cls-27" x="1190.85" y="0">Ş</tspan><tspan class="cls-34" x="1205.56" y="0">I</tspan><tspan x="1212.19" y="0">N</tspan></text>
      <g>
        <g>
          <rect class="cls-6" x="1689.24" y="279.54" width="80.76" height="27.96" rx="4.47" ry="4.47"/>
          <text class="cls-29" transform="translate(1697 298.79)"><tspan class="cls-98" x="0" y="0">44</tspan><tspan class="cls-130" x="16.77" y="0">4 1 </tspan><tspan class="cls-98" x="40.32" y="0">44</tspan><tspan x="57.09" y="0">4</tspan></text>
        </g>
        <g>
          <rect class="cls-6" x="1689.24" y="239.79" width="80.76" height="27.96" rx="4.47" ry="4.47"/>
          <text class="cls-29" transform="translate(1710.29 258.48)"><tspan class="cls-109" x="0" y="0">İ</tspan><tspan class="cls-122" x="4.09" y="0">N</tspan><tspan class="cls-91" x="14.67" y="0">D</tspan><tspan class="cls-109" x="25.17" y="0">İ</tspan><tspan x="29.26" y="0">R</tspan></text>
        </g>
        <g>
          <rect class="cls-6" x="1689.24" y="200.04" width="80.76" height="27.96" rx="4.47" ry="4.47"/>
          <text class="cls-29" transform="translate(1710.29 219.13)"><tspan class="cls-109" x="0" y="0">İ</tspan><tspan class="cls-122" x="4.09" y="0">N</tspan><tspan class="cls-91" x="14.67" y="0">D</tspan><tspan class="cls-109" x="25.17" y="0">İ</tspan><tspan x="29.26" y="0">R</tspan></text>
        </g>
      </g>
      <text class="cls-7" transform="translate(371.93 512.15)"><tspan class="cls-136" x="0" y="0">C</tspan><tspan class="cls-12" x="13.93" y="0">o</tspan><tspan class="cls-38" x="24.83" y="0">p</tspan><tspan class="cls-124" x="35.82" y="0">y</tspan><tspan class="cls-90" x="45.5" y="0">ri</tspan><tspan class="cls-60" x="56.49" y="0">g</tspan><tspan class="cls-1" x="67.61" y="0">h</tspan><tspan x="78.19" y="0">t © </tspan><tspan class="cls-54" x="107.29" y="0">2</tspan><tspan class="cls-111" x="117.8" y="0">0</tspan><tspan class="cls-103" x="128.27" y="0">2</tspan><tspan x="138.74" y="0">2 </tspan><tspan class="cls-23" x="153.77" y="0">E</tspan><tspan class="cls-94" x="165.35" y="0">VI</tspan><tspan class="cls-97" x="182.69" y="0">T</tspan><tspan class="cls-39" x="191.29" y="0">A</tspan></text>
    </g>
  </g>
</svg>